<<<<<<< HEAD
<svg xmlns="http://www.w3.org/2000/svg" viewBox="0 0 96 96" width="48" height="48">
=======
<svg xmlns="http://www.w3.org/2000/svg" viewBox="0 0 96 96">
>>>>>>> main
  <rect width="96" height="96" rx="22" fill="#d6612b"/>
  <path d="M17 58c0-16 13-29 29-29h12v-8c0-6 5-11 11-11h7c6 0 11 5 11 11v47c0 6-5 11-11 11H46c-16 0-29-5-29-21Z" fill="#18212b"/>
  <path d="M53 10h15v20H53z" fill="#f4e6cf"/>
  <circle cx="39" cy="78" r="8" fill="#f4e6cf"/>
  <circle cx="73" cy="78" r="8" fill="#f4e6cf"/>
  <path d="M27 46h29l10 8-10 8H27l5-8-5-8Z" fill="#f4e6cf"/>
</svg>
